<svg xmlns="http://www.w3.org/2000/svg" width="600" height="600" viewBox="0 0 600 600">
  <rect width="600" height="600" fill="#3182F6"/>
  <rect x="0" y="480" width="600" height="120" fill="#1B64DA"/>
  <g transform="translate(300 310)">
    <ellipse cx="0" cy="95" rx="130" ry="18" fill="#1B64DA" opacity="0.35"/>
    <path d="M-95 40c25-55 75-85 120-70 20 8 35 28 40 50 8-2 22-4 32 6 12 12 8 32-2 42-18 16-48 10-68 2 10 18 8 42-8 58-22 22-58 18-78-2s-22-52-4-76c12-16 32-22 48-18-8-22 2-48 20-62z" fill="#FFFFFF"/>
    <path d="M-72 8c18-28 52-42 78-32 14 6 24 20 28 36 6-2 14-3 20 4 8 8 6 22-2 28-12 10-32 6-46 0 6 12 5 28-6 38-14 14-38 12-52-2s-14-36-2-50c8-10 22-14 34-12-6-14 2-32 16-42z" fill="#E8F3FF"/>
    <circle cx="88" cy="-18" r="14" fill="#FFFFFF"/>
    <circle cx="92" cy="-20" r="5" fill="#1B64DA"/>
    <path d="M-40 78 L120 78" stroke="#FFD666" stroke-width="10" stroke-linecap="round"/>
    <path d="M-55 78 L-35 58 M-20 78 L0 58 M15 78 L35 58 M50 78 L70 58 M85 78 L105 58" stroke="#FFFFFF" stroke-width="5" stroke-linecap="round" opacity="0.85"/>
  </g>
  <text x="300" y="545" text-anchor="middle" font-family="Malgun Gothic, Apple SD Gothic Neo, sans-serif" font-size="42" font-weight="700" fill="#FFFFFF">????</text>
</svg>
